<svg xmlns="http://www.w3.org/2000/svg" width="60" height="60" viewBox="0 0 60 60">
  <g fill="none" fill-rule="evenodd" stroke="#000000" stroke-linecap="round" stroke-linejoin="round" stroke-width="2">
    <g transform="translate(13 20)">
      <path fill="#FFFFFF" d="M0.583466642,4 C0.583466642,1.5 10.2352789,0.0469084293 10.2352789,0.0469084293 C10.2352789,2.02803299 13.4134813,3.77783981 16.8290598,3.77783981 C20.2446384,3.77783981 23.4228408,2.02803299 23.4228408,0.0469084293 C23.4228408,0.0469084293 33,1 33,4 L33.0665311,29.0311806 C33.0709348,30.6880293 31.7313635,32.0347405 30.0745148,32.0391443 C30.0579904,32.0391882 30.0414659,32.0390956 30.0249431,32.0388664 C25.8786501,31.9813683 21.4800224,31.9526193 16.8290598,31.9526193 C12.1717109,31.9526193 7.76739016,31.9814473 3.6160977,32.0391035 L3.61609788,32.0391162 C1.95939638,32.0621256 0.597721615,30.7377566 0.574712157,29.0810551 C0.574560559,29.0701399 0.574468539,29.059224 0.574436099,29.0483079 C0.524812033,12.349436 0.5,4 0.5,4 L0.583466642,4 Z"/>
      <path d="M10.2352789,0.0469084293 C10.2352789,0.0469084293 15.1806146,0.979641274 16.8290598,0.979641274 C18.4775051,0.979641274 23.4228408,0.0469084293 23.4228408,0.0469084293"/>
    </g>
    <g transform="translate(13 17)">
      <path fill="#FFFFFF" d="M0.583466642,4 C0.583466642,1.5 10.2352789,0.0469084293 10.2352789,0.0469084293 C10.2352789,2.02803299 13.4134813,3.77783981 16.8290598,3.77783981 C20.2446384,3.77783981 23.4228408,2.02803299 23.4228408,0.0469084293 C23.4228408,0.0469084293 33,1 33,4 L33.0665311,29.0311806 C33.0709348,30.6880293 31.7313635,32.0347405 30.0745148,32.0391443 C30.0579904,32.0391882 30.0414659,32.0390956 30.0249431,32.0388664 C25.8786501,31.9813683 21.4800224,31.9526193 16.8290598,31.9526193 C12.1717109,31.9526193 7.76739016,31.9814473 3.6160977,32.0391035 L3.61609788,32.0391162 C1.95939638,32.0621256 0.597721615,30.7377566 0.574712157,29.0810551 C0.574560559,29.0701399 0.574468539,29.059224 0.574436099,29.0483079 C0.524812033,12.349436 0.5,4 0.5,4 L0.583466642,4 Z"/>
      <path d="M10.2352789,0.0469084293 C10.2352789,0.0469084293 15.1806146,0.979641274 16.8290598,0.979641274 C18.4775051,0.979641274 23.4228408,0.0469084293 23.4228408,0.0469084293"/>
    </g>
    <g transform="translate(13 14)">
      <path fill="#FFFFFF" d="M0.583466642,4 C0.583466642,1.5 10.2352789,0.0469084293 10.2352789,0.0469084293 C10.2352789,2.02803299 13.4134813,3.77783981 16.8290598,3.77783981 C20.2446384,3.77783981 23.4228408,2.02803299 23.4228408,0.0469084293 C23.4228408,0.0469084293 33,1 33,4 L33.0665311,29.0311806 C33.0709348,30.6880293 31.7313635,32.0347405 30.0745148,32.0391443 C30.0579904,32.0391882 30.0414659,32.0390956 30.0249431,32.0388664 C25.8786501,31.9813683 21.4800224,31.9526193 16.8290598,31.9526193 C12.1717109,31.9526193 7.76739016,31.9814473 3.6160977,32.0391035 L3.61609788,32.0391162 C1.95939638,32.0621256 0.597721615,30.7377566 0.574712157,29.0810551 C0.574560559,29.0701399 0.574468539,29.059224 0.574436099,29.0483079 C0.524812033,12.349436 0.5,4 0.5,4 L0.583466642,4 Z"/>
      <path d="M10.2352789,0.0469084293 C10.2352789,0.0469084293 15.1806146,0.979641274 16.8290598,0.979641274 C18.4775051,0.979641274 23.4228408,0.0469084293 23.4228408,0.0469084293"/>
    </g>
    <g transform="translate(13 11)">
      <path fill="#FFFFFF" d="M0.583466642,4 C0.583466642,1.5 10.2352789,0.0469084293 10.2352789,0.0469084293 C10.2352789,2.02803299 13.4134813,3.77783981 16.8290598,3.77783981 C20.2446384,3.77783981 23.4228408,2.02803299 23.4228408,0.0469084293 C23.4228408,0.0469084293 33,1 33,4 L33.0665311,29.0311806 C33.0709348,30.6880293 31.7313635,32.0347405 30.0745148,32.0391443 C30.0579904,32.0391882 30.0414659,32.0390956 30.0249431,32.0388664 C25.8786501,31.9813683 21.4800224,31.9526193 16.8290598,31.9526193 C12.1717109,31.9526193 7.76739016,31.9814473 3.6160977,32.0391035 L3.61609788,32.0391162 C1.95939638,32.0621256 0.597721615,30.7377566 0.574712157,29.0810551 C0.574560559,29.0701399 0.574468539,29.059224 0.574436099,29.0483079 C0.524812033,12.349436 0.5,4 0.5,4 L0.583466642,4 Z"/>
      <path d="M10.2352789,0.0469084293 C10.2352789,0.0469084293 15.1806146,0.979641274 16.8290598,0.979641274 C18.4775051,0.979641274 23.4228408,0.0469084293 23.4228408,0.0469084293"/>
    </g>
    <g transform="translate(13 8)">
      <path fill="#FFFFFF" d="M0.583466642,4 C0.583466642,1.5 10.2352789,0.0469084293 10.2352789,0.0469084293 C10.2352789,2.02803299 13.4134813,3.77783981 16.8290598,3.77783981 C20.2446384,3.77783981 23.4228408,2.02803299 23.4228408,0.0469084293 C23.4228408,0.0469084293 33,1 33,4 L33.0665311,29.0311806 C33.0709348,30.6880293 31.7313635,32.0347405 30.0745148,32.0391443 C30.0579904,32.0391882 30.0414659,32.0390956 30.0249431,32.0388664 C25.8786501,31.9813683 21.4800224,31.9526193 16.8290598,31.9526193 C12.1717109,31.9526193 7.76739016,31.9814473 3.6160977,32.0391035 L3.61609788,32.0391162 C1.95939638,32.0621256 0.597721615,30.7377566 0.574712157,29.0810551 C0.574560559,29.0701399 0.574468539,29.059224 0.574436099,29.0483079 C0.524812033,12.349436 0.5,4 0.5,4 L0.583466642,4 Z"/>
      <path d="M10.2352789,0.0469084293 C10.2352789,0.0469084293 15.1806146,0.979641274 16.8290598,0.979641274 C18.4775051,0.979641274 23.4228408,0.0469084293 23.4228408,0.0469084293"/>
    </g>
  </g>
</svg>
